<svg xmlns="http://www.w3.org/2000/svg" viewBox="0 0 512 512" role="img" aria-labelledby="title desc">
  <title id="title">Sipencak</title>
  <desc id="desc">Sipencak PWA application icon</desc>
  <rect width="512" height="512" rx="96" fill="#0f5a8f"/>
  <rect x="54" y="54" width="404" height="404" rx="72" fill="#ffffff" opacity="0.1"/>
  <path d="M154 170c0-49 41-84 104-84 49 0 86 19 112 51l-44 40c-17-20-38-30-66-30-29 0-47 10-47 29 0 20 24 27 63 37 58 15 111 34 111 102 0 59-49 99-126 99-61 0-109-24-137-64l48-39c21 28 51 43 91 43 37 0 61-14 61-36 0-24-29-32-72-43-52-13-98-33-98-105z" fill="#ffffff"/>
  <path d="M151 432h210" stroke="#d9ecfb" stroke-width="20" stroke-linecap="round"/>
</svg>
